<svg 
 xmlns="http://www.w3.org/2000/svg"
 xmlns:xlink="http://www.w3.org/1999/xlink"
 width="20px" height="20px">
<path fill-rule="evenodd"  fill="rgb(115, 78, 135)"
 d="M17.386,20.000 L2.484,20.000 C1.112,20.000 0.000,18.887 0.000,17.515 L0.000,2.603 C0.000,1.230 1.128,0.000 2.500,0.000 L12.500,0.000 L12.500,1.250 L2.500,1.250 C1.814,1.250 1.242,1.917 1.242,2.603 L1.242,17.515 C1.242,18.201 1.798,18.758 2.484,18.758 L17.386,18.758 C18.071,18.758 18.750,18.186 18.750,17.500 L18.750,7.500 L20.000,7.500 L20.000,17.500 C20.000,18.873 18.757,20.000 17.386,20.000 ZM9.964,13.978 C9.782,14.160 9.554,14.251 9.320,14.296 L3.883,16.986 C3.271,17.270 2.781,16.721 3.006,16.109 L5.694,10.668 C5.739,10.433 5.830,10.206 6.012,10.024 L15.671,0.358 C16.156,-0.127 16.942,-0.127 17.427,0.358 L19.623,2.555 C20.107,3.040 20.107,3.827 19.623,4.312 L9.964,13.978 ZM4.195,15.357 C4.053,15.644 4.328,15.938 4.634,15.796 L7.991,13.762 L6.228,11.997 L4.195,15.357 ZM7.329,11.342 L8.646,12.660 C8.889,12.903 8.262,12.276 9.085,13.099 L16.110,6.070 L13.899,3.889 L6.890,10.903 C7.123,11.136 7.087,11.099 7.329,11.342 ZM18.305,2.994 L16.988,1.676 C16.746,1.434 16.352,1.434 16.110,1.676 L14.825,2.963 L16.988,5.191 L18.305,3.873 C18.548,3.630 18.548,3.237 18.305,2.994 Z"/>
</svg>